<?xml version="1.0" encoding="utf-8"?>
<!-- Generator: Adobe Illustrator 22.1.0, SVG Export Plug-In . SVG Version: 6.00 Build 0)  -->
<svg version="1.1" id="Capa_1" xmlns="http://www.w3.org/2000/svg" xmlns:xlink="http://www.w3.org/1999/xlink" x="0px" y="0px"
	 viewBox="0 0 512 512" style="enable-background:new 0 0 512 512;" xml:space="preserve">
<style type="text/css">
	.st0{fill:none;stroke: #176fea;stroke-width:8;stroke-miterlimit:10;}
	.st1{fill:none;stroke: #0f91f1;stroke-width:5;stroke-miterlimit:10;}
	.st2{fill:none;stroke: #dedbf6;stroke-width:5;stroke-miterlimit:10;}
	.st3{fill: #137bec;}
</style>
<polygon class="st0" points="30,403.7 22.2,396.9 12.2,399.5 16.2,390 10.7,381.2 21,382.1 27.6,374.2 29.9,384.2 39.5,388.1 
	30.7,393.4 "/>
<polygon class="st1" points="350.3,434.3 338.7,434.8 332.6,444.7 328.5,433.8 317.2,431 326.3,423.8 325.5,412.2 335.2,418.6 
	345.9,414.2 342.8,425.4 "/>
<polygon class="st1" points="78.5,78.4 75,75.7 70.7,77.1 72.2,72.9 69.5,69.3 74,69.4 76.6,65.8 77.9,70.1 82.1,71.4 78.5,74 "/>
<polygon class="st1" points="268,55 265.6,50.2 260.4,49.5 264.2,45.8 263.3,40.5 268,43 272.7,40.5 271.8,45.8 275.6,49.5 
	270.4,50.2 "/>
<polygon class="st1" points="429.2,273.9 425.6,266.6 417.7,265.5 423.4,259.8 422.1,251.9 429.2,255.6 436.4,251.9 435,259.8 
	440.8,265.5 432.8,266.6 "/>
<circle class="st2" cx="105" cy="472.7" r="14.6"/>
<circle class="st2" cx="75.8" cy="241" r="6.1"/>
<circle class="st2" cx="133.7" cy="118" r="14.2"/>
<circle class="st2" cx="467" cy="89" r="10.6"/>
<circle class="st2" cx="368.3" cy="40.5" r="5.3"/>
<circle class="st2" cx="425.1" cy="377.4" r="11.5"/>
<g>
	<path class="st3" d="M405.1,290.5l-11.1-6.4c1.9-9.2,2.8-18.5,2.8-27.6c0-9.2-0.9-18.5-2.8-27.6l11-6.4c3.4-2,5.9-5.2,6.9-9
		c1-3.8,0.5-7.8-1.5-11.2l-30.1-52.2c-2-3.4-5.2-5.9-9-6.9c-3.8-1-7.8-0.5-11.2,1.5l-11,6.4c-13.9-12.3-30.3-21.7-47.8-27.6v-12.7
		c0-8.1-6.6-14.8-14.8-14.8h-60.3c-8.1,0-14.8,6.6-14.8,14.8v12.7c-17.4,5.9-33.7,15.4-47.7,27.7l-11.1-6.4c-3.4-2-7.4-2.5-11.2-1.5
		s-7,3.5-9,6.9l-30.1,52.2c-2,3.4-2.5,7.4-1.5,11.2c1,3.8,3.5,7,6.9,9l11.1,6.4c-1.9,9.2-2.8,18.5-2.8,27.6c0,9.2,0.9,18.5,2.8,27.6
		l-11,6.4c-7,4.1-9.5,13.1-5.4,20.2l30.1,52.2c4.1,7,13.1,9.5,20.2,5.4l11-6.4c13.9,12.3,30.3,21.7,47.8,27.6v12.7
		c0,8.1,6.6,14.8,14.8,14.8h60.3c8.1,0,14.8-6.6,14.8-14.8v-12.7c17.4-5.9,33.7-15.4,47.7-27.7l11.1,6.4c7,4.1,16.1,1.6,20.2-5.4
		l30.1-52.2C414.6,303.6,412.2,294.5,405.1,290.5z M402.4,305.9l-30.1,52.2c-1.5,2.5-4.7,3.4-7.3,2l-14.1-8.1c-1.8-1-4-0.8-5.6,0.6
		c-14.4,13.3-31.7,23.3-50,29c-2,0.6-3.3,2.4-3.3,4.5v16.1c0,2.9-2.4,5.3-5.3,5.3h-60.3c-2.9,0-5.3-2.4-5.3-5.3v-16.1
		c0-2.1-1.3-3.9-3.3-4.5c-18.5-5.7-35.8-15.7-50.1-29c-0.9-0.8-2-1.3-3.2-1.3c-0.8,0-1.6,0.2-2.4,0.6l-14,8.1
		c-2.5,1.5-5.8,0.6-7.3-2l-30.1-52.2c-1.5-2.5-0.6-5.8,2-7.3l14-8.1c1.8-1,2.7-3.1,2.2-5.1c-2.2-9.5-3.2-19.3-3.2-28.9
		c0-9.5,1.1-19.2,3.3-28.9c0.5-2-0.5-4.1-2.2-5.1l-14-8.1c-1.2-0.7-2.1-1.9-2.5-3.2c-0.4-1.4-0.2-2.8,0.5-4.1l30.1-52.2
		c0.7-1.2,1.9-2.1,3.2-2.5c1.4-0.4,2.8-0.2,4.1,0.5l14.1,8.1c1.8,1,4,0.8,5.6-0.6c14.4-13.3,31.7-23.3,50-29c2-0.6,3.3-2.4,3.3-4.5
		v-16.1c0-2.9,2.4-5.3,5.3-5.3h60.3c2.9,0,5.3,2.4,5.3,5.3v16.1c0,2.1,1.3,3.9,3.3,4.5c18.5,5.7,35.8,15.7,50.1,29
		c1.5,1.4,3.8,1.7,5.6,0.6l14-8.1c1.2-0.7,2.7-0.9,4.1-0.5c1.4,0.4,2.5,1.3,3.2,2.5l30.1,52.2c0.7,1.2,0.9,2.7,0.5,4.1
		c-0.4,1.4-1.3,2.5-2.5,3.2l-14,8.1c-1.8,1-2.7,3.1-2.2,5.1c2.2,9.5,3.2,19.3,3.2,28.9c0,9.5-1.1,19.2-3.3,28.9
		c-0.5,2,0.5,4.1,2.2,5.1l14,8.1C403,300.1,403.8,303.4,402.4,305.9z"/>
	<path class="st3" d="M256.5,161.4c-52.5,0-95.1,42.7-95.1,95.1s42.7,95.1,95.1,95.1s95.1-42.7,95.1-95.1S309,161.4,256.5,161.4z
		 M256.5,342.2c-47.3,0-85.7-38.5-85.7-85.7s38.5-85.7,85.7-85.7s85.7,38.5,85.7,85.7S303.8,342.2,256.5,342.2z"/>
	<path class="st3" d="M274.1,231.7h-17.6c-2.6,0-4.7,2.1-4.7,4.7v40.2c0,2.6,2.1,4.7,4.7,4.7c2.6,0,4.7-2.1,4.7-4.7v-10.4h12.9
		c9.5,0,17.3-7.7,17.3-17.3S283.6,231.7,274.1,231.7z M274.1,256.8h-12.9v-15.7h12.9c4.3,0,7.8,3.5,7.8,7.8
		C281.9,253.3,278.4,256.8,274.1,256.8z"/>
	<path class="st3" d="M230.8,234.8c-0.7-1.8-2.4-3.1-4.4-3.1h-5c-2,0-3.7,1.2-4.4,3.1l-15.1,40.2c-0.9,2.4,0.3,5.1,2.8,6.1
		s5.1-0.3,6.1-2.8l2.6-7h21.1l2.6,7c0.7,1.9,2.5,3.1,4.4,3.1c0.5,0,1.1-0.1,1.7-0.3c2.4-0.9,3.7-3.6,2.8-6.1L230.8,234.8z
		 M216.8,261.8l7-18.7l7,18.7H216.8z"/>
	<path class="st3" d="M301.7,231.7c-2.6,0-4.7,2.1-4.7,4.7v40.2c0,2.6,2.1,4.7,4.7,4.7s4.7-2.1,4.7-4.7v-40.2
		C306.4,233.8,304.3,231.7,301.7,231.7z"/>
	<path class="st3" d="M290.2,150.9c3.3,1,6.5,2.3,9.7,3.6c0.6,0.3,1.2,0.4,1.8,0.4c1.8,0,3.6-1.1,4.3-2.9c1-2.4-0.1-5.2-2.5-6.2
		c-3.4-1.5-7-2.8-10.5-3.9c-2.5-0.8-5.1,0.6-5.9,3.1C286.3,147.4,287.7,150.1,290.2,150.9z"/>
	<path class="st3" d="M159.1,309.5c-1.2-2.3-4.1-3.1-6.4-1.9c-2.3,1.2-3.1,4.1-1.9,6.4c2,3.6,4.1,7.1,6.4,10.5c0.9,1.3,2.4,2,3.9,2
		c0.9,0,1.8-0.3,2.7-0.8c2.1-1.5,2.7-4.4,1.2-6.5C162.9,316,160.9,312.8,159.1,309.5z"/>
	<path class="st3" d="M246.9,366.9c-25.2-2.2-49.2-13.1-67.5-30.8c-1.9-1.8-4.9-1.8-6.7,0.1c-1.8,1.9-1.8,4.9,0.1,6.7
		c19.8,19.2,45.8,31.1,73.2,33.4c0.1,0,0.3,0,0.4,0c2.4,0,4.5-1.9,4.7-4.3C251.4,369.4,249.4,367.1,246.9,366.9z"/>
	<path class="st3" d="M324.3,157.2c-2.1-1.5-5.1-0.9-6.5,1.2c-1.5,2.1-0.9,5.1,1.2,6.5c21.9,15,37.7,37.2,44.6,62.7
		c0.6,2.1,2.5,3.5,4.5,3.5c0.4,0,0.8-0.1,1.2-0.2c2.5-0.7,4-3.3,3.3-5.8C365.2,197.5,348,173.4,324.3,157.2z"/>
</g>
</svg>
