<?xml version="1.0" encoding="utf-8"?>
<!-- Generator: Adobe Illustrator 22.1.0, SVG Export Plug-In . SVG Version: 6.00 Build 0)  -->
<svg version="1.1" id="Capa_1" xmlns="http://www.w3.org/2000/svg" xmlns:xlink="http://www.w3.org/1999/xlink" x="0px" y="0px"
	 viewBox="0 0 512 512" style="enable-background:new 0 0 512 512;" xml:space="preserve">
<style type="text/css">
	.st0{fill:none;stroke: #176fea;stroke-width:8;stroke-miterlimit:10;}
	.st1{fill:none;stroke: #0f91f1;stroke-width:5;stroke-miterlimit:10;}
	.st2{fill:none;stroke: #dedbf6;stroke-width:5;stroke-miterlimit:10;}
	.st3{fill: #137bec;}
</style>
<polygon class="st0" points="61.1,424.9 53.3,418.1 43.3,420.7 47.3,411.2 41.8,402.4 52.1,403.3 58.7,395.4 61,405.4 70.6,409.3 
	61.8,414.6 "/>
<polygon class="st1" points="356,447.7 344.4,448.2 338.3,458.1 334.2,447.2 322.9,444.4 332,437.2 331.2,425.6 340.9,432 
	351.6,427.6 348.5,438.8 "/>
<polygon class="st1" points="52.6,78.4 49.1,75.7 44.8,77.1 46.3,72.9 43.6,69.3 48.1,69.4 50.7,65.8 52,70.1 56.2,71.4 52.6,74 "/>
<polygon class="st1" points="302.4,60.3 300,55.5 294.8,54.8 298.6,51.1 297.7,45.8 302.4,48.3 307.1,45.8 306.2,51.1 310,54.8 
	304.8,55.5 "/>
<polygon class="st1" points="452.3,268 448.7,260.7 440.8,259.6 446.5,253.9 445.2,246 452.3,249.7 459.5,246 458.1,253.9 
	463.9,259.6 455.9,260.7 "/>
<circle class="st2" cx="148.4" cy="468.3" r="14.6"/>
<circle class="st2" cx="65.1" cy="217.1" r="6.1"/>
<circle class="st2" cx="124.8" cy="97.8" r="14.2"/>
<circle class="st2" cx="451.4" cy="122.6" r="10.6"/>
<circle class="st2" cx="431" cy="40.5" r="5.3"/>
<circle class="st2" cx="431" cy="389" r="11.5"/>
<g>
	<g>
		<g>
			<path class="st3" d="M419.4,252.1c-54.1,0-88,0-142,0c-1.6-8.5-7.9-14.8-16.4-17v-80c0-3.2-2.1-5.3-5.3-5.3
				c-3.2,0-5.3,2.1-5.3,5.3v80c-8.5,2.1-14.8,8.5-16.4,17c-54.1,0-88.5,0-142,0l-1.6,3.2c-0.5,1.6-1.1,3.2-1.1,4.8v23.3
				c0,5.8,4.8,11.1,10.6,12.2l27.6,3.7c0.5,0,1.1,0.5,1.6,1.1c3.2,13.8,9,27,17,38.7c-2.1,2.7-5.8,7.4-9.5,11.7l-7.9,10.1
				c-3.7,4.8-3.2,11.7,1.1,15.9l17,16.4c4.2,4.2,11.1,4.8,15.9,1.1l22.3-16.4c0.5-0.5,1.6-0.5,2.1,0c12.2,7.4,25.4,12.7,39.2,15.9
				c0.5,0,1.1,0.5,1.6,1.1l3.7,26.5c0.5,2.1,1.1,4.2,2.7,5.8c2.1,2.7,5.8,4.2,9.5,4.2h23.8c3.7,0,7.4-1.6,9.5-4.2
				c1.6-1.6,2.7-3.7,2.7-5.8l3.7-26.5c0-0.5,0.5-1.1,1.6-1.1c14.3-3.2,27.6-8.5,39.2-15.9c0.5-0.5,1.6-0.5,2.1,0l21.7,15.9
				c5.3,3.7,12.2,3.2,17-1.1l16.4-15.9c4.2-4.2,4.8-11.1,1.1-15.9l-17-21.2c-0.5-0.5-0.5-1.1,0-1.6c7.4-11.7,13.2-24.4,16.4-38.2
				c0-0.5,0.5-1.1,1.6-1.1l27.6-3.7c5.8-0.5,10.6-5.8,10.6-12.2v-23.3c0-1.6-0.5-3.2-1.1-4.8L419.4,252.1z M244.5,255.3
				c0-5.8,5.3-10.1,11.1-10.1c5.8,0,10.6,4.2,11.1,10.1v1.6c-0.5,5.3-5.3,10.1-11.1,10.1c-5.8,0-10.6-4.2-11.1-10.1V255.3z
				 M187.2,262.7h47.7c2.7,8.5,11.1,14.8,20.7,14.8s18-6.4,20.7-14.8H324c0.5,3.2,0.5,5.8,0.5,9c0,36.6-30.7,66.3-68.9,66.3
				s-68.9-29.7-68.9-66.3C186.7,268.5,186.7,265.9,187.2,262.7z M410.9,283.4L410.9,283.4c0,0.5-0.5,1.1-1.6,1.6l-27.6,3.7
				c-5.3,0.5-9,4.2-10.6,9.5c-3.2,12.2-7.9,23.8-14.8,34.4c-2.7,4.2-2.7,10.1,0.5,13.8l17,21.2c0.5,0.5,0.5,1.6,0,1.6l-16.4,15.9
				c-1.1,1.1-2.1,1.1-3.2,0l-21.7-15.9c-4.2-3.2-9.5-3.2-13.8-0.5c-11.1,6.9-23.3,11.7-36,14.3c-5.3,1.1-9,5.3-9.5,10.1l-3.7,26.5
				c0,0,0,0.5-0.5,0.5c0,1.1-0.5,1.1-1.1,1.1H244c-0.5,0-1.1,0-1.6-0.5c0-0.5-0.5-0.5-0.5-0.5l-3.7-26.5c-0.5-4.8-4.8-9-9.5-10.1
				c-12.7-2.7-24.9-7.9-36-14.3c-4.2-2.7-10.1-2.1-13.8,0.5l-22.3,16.4c-0.5,0.5-1.6,0.5-2.7,0l-17-16.4c-0.5-0.5-0.5-1.1,0-1.6
				l7.9-10.1c5.3-6.4,10.1-12.7,11.7-14.3l0.5-0.5c1.1-2.1,1.1-4.8,0-6.4c-7.9-11.7-13.8-24.4-17-38.2c-1.1-5.3-5.3-8.5-10.6-9.5
				l-27.6-3.7c-1.1,0-1.6-0.5-1.6-1.6v-20.1h76.3c-0.5,2.1-0.5,4.8-0.5,7.9c0,42.4,35.5,76.8,79.5,76.8s79.5-34.4,79.5-76.8
				c0-2.7,0-5.8-0.5-9h76.3L410.9,283.4L410.9,283.4z"/>
			<path class="st3" d="M430.5,218.2c-18-79-91.7-136.2-174.9-136.2S98.7,139.2,80.7,217.7c-0.5,2.7,1.1,5.8,4.2,6.4
				c2.7,1.1,5.8-1.1,6.4-3.7c17-74.2,85.9-127.7,164.3-127.7s147.9,54.1,164.3,128.3c0.5,2.7,2.7,4.2,5.3,4.2c0.5,0,0.5,0,1.1,0
				C429.5,224,431,221.4,430.5,218.2z"/>
			<path class="st3" d="M255.6,131.3c3.2,0,5.3-2.1,5.3-5.3v-17.5c0-3.2-2.1-5.3-5.3-5.3s-5.3,2.1-5.3,5.3v18
				C250.3,129.1,252.4,131.3,255.6,131.3z"/>
			<path class="st3" d="M353.1,167.8l12.7-12.7c2.1-2.1,2.1-5.3,0-7.4s-5.3-2.1-7.4,0l-12.7,12.7c-2.1,2.1-2.1,5.3,0,7.4
				C347.8,170,351,170,353.1,167.8z"/>
			<path class="st3" d="M165.5,167.8c2.1-2.1,2.1-5.3,0-7.4l-12.7-12.7c-2.1-2.1-5.3-2.1-7.4,0s-2.1,5.3,0,7.4l12.7,12.7
				C159.7,170,163.4,170,165.5,167.8z"/>
			<path class="st3" d="M131.6,209.2c2.7,1.1,5.8,0,6.9-2.7c1.1-2.7,0-5.8-2.7-6.9l-17-6.9c-2.7-1.1-5.8,0-6.9,2.7
				c-1.1,2.7,0,5.8,2.7,6.9L131.6,209.2z"/>
			<path class="st3" d="M313.4,139.2l7.4-16.4c1.1-2.7,0-5.8-2.7-6.9c-2.7-1.1-5.8,0-6.9,2.7l-7.4,16.4c-1.1,2.7,0,5.8,2.7,6.9
				C309.1,142.9,312.3,141.9,313.4,139.2z"/>
			<path class="st3" d="M204.2,141.9c2.7-1.1,3.7-4.2,2.7-6.9l-7.4-16.4c-1.1-2.7-4.2-3.7-6.9-2.7c-2.7,1.1-3.7,4.2-2.7,6.9
				l7.4,16.4C198.4,141.9,201.6,143.5,204.2,141.9z"/>
			<path class="st3" d="M379.1,208.6l17-7.4c2.7-1.1,3.7-4.2,2.7-6.9c-1.1-2.7-4.2-3.7-6.9-2.7l-16.4,6.9c-2.7,1.1-3.7,4.2-2.7,6.9
				C373.3,208.6,376.5,209.7,379.1,208.6z"/>
		</g>
	</g>
</g>
</svg>
