<?xml version="1.0" encoding="utf-8"?>
<!-- Generator: Adobe Illustrator 22.1.0, SVG Export Plug-In . SVG Version: 6.00 Build 0)  -->
<svg version="1.1" id="Capa_1" xmlns="http://www.w3.org/2000/svg" xmlns:xlink="http://www.w3.org/1999/xlink" x="0px" y="0px"
	 viewBox="0 0 512 512" style="enable-background:new 0 0 512 512;" xml:space="preserve">
<style type="text/css">
	.st0{fill:none;stroke: #176fea;stroke-width:8;stroke-miterlimit:10;}
	.st1{fill:none;stroke: #0f91f1;stroke-width:5;stroke-miterlimit:10;}
	.st2{fill:none;stroke: #dedbf6;stroke-width:5;stroke-miterlimit:10;}
	.st3{fill: #137bec;}
</style>
<polygon class="st0" points="61.1,424.9 53.3,418.1 43.3,420.7 47.3,411.2 41.8,402.4 52.1,403.3 58.7,395.4 61,405.4 70.6,409.3 
	61.8,414.6 "/>
<polygon class="st1" points="356,447.7 344.4,448.2 338.3,458.1 334.2,447.2 322.9,444.4 332,437.2 331.2,425.6 340.9,432 
	351.6,427.6 348.5,438.8 "/>
<polygon class="st1" points="52.6,78.4 49.1,75.7 44.8,77.1 46.3,72.9 43.6,69.3 48.1,69.4 50.7,65.8 52,70.1 56.2,71.4 52.6,74 "/>
<polygon class="st1" points="302.4,60.3 300,55.5 294.8,54.8 298.6,51.1 297.7,45.8 302.4,48.3 307.1,45.8 306.2,51.1 310,54.8 
	304.8,55.5 "/>
<polygon class="st1" points="452.3,268 448.7,260.7 440.8,259.6 446.5,253.9 445.2,246 452.3,249.7 459.5,246 458.1,253.9 
	463.9,259.6 455.9,260.7 "/>
<circle class="st2" cx="148.4" cy="468.3" r="14.6"/>
<circle class="st2" cx="65.1" cy="217.1" r="6.1"/>
<circle class="st2" cx="124.8" cy="97.8" r="14.2"/>
<circle class="st2" cx="451.4" cy="122.6" r="10.6"/>
<circle class="st2" cx="431" cy="40.5" r="5.3"/>
<circle class="st2" cx="431" cy="389" r="11.5"/>
<g>
	<g>
		<path class="st3" d="M240.2,278.9c-3.4,0-6.1,2.7-6.1,6.1s2.7,6.1,6.1,6.1s6.1-2.7,6.1-6.1S243.5,278.9,240.2,278.9z"/>
	</g>
</g>
<g>
	<g>
		<path class="st3" d="M167,278.9c-3.4,0-6.1,2.7-6.1,6.1s2.7,6.1,6.1,6.1s6.1-2.7,6.1-6.1S170.4,278.9,167,278.9z"/>
	</g>
</g>
<g>
	<g>
		<path class="st3" d="M203.6,278.9c-3.4,0-6.1-2.7-6.1-6.1s2.7-6.1,6.1-6.1c2.2,0,4.4,1.1,6.6,3.2c2.4,2.3,6.3,2.3,8.6-0.1
			c2.3-2.4,2.3-6.3-0.1-8.6c-3.1-3-6.2-4.7-9-5.6v-7.1c0-3.4-2.7-6.1-6.1-6.1c-3.4,0-6.1,2.7-6.1,6.1v7.1
			c-7.1,2.5-12.2,9.3-12.2,17.2c0,10.1,8.2,18.3,18.3,18.3c3.4,0,6.1,2.7,6.1,6.1s-2.7,6.1-6.1,6.1c-2.6,0-5.4-1.6-7.9-4.6
			c-2.2-2.6-6-2.9-8.6-0.7c-2.6,2.2-2.9,6-0.7,8.6c3.3,3.9,7.1,6.6,11.1,7.9v7.1c0,3.4,2.7,6.1,6.1,6.1c3.4,0,6.1-2.7,6.1-6.1v-7.1
			c7.1-2.5,12.2-9.3,12.2-17.2C221.9,287.1,213.7,278.9,203.6,278.9z"/>
	</g>
</g>
<g>
	<g>
		<path class="st3" d="M364.5,241.4c-21.9,0-44.5,9.1-44.5,24.4v31.9c-4.3-2.5-9.7-4.5-15.8-5.8V284c0-19.9-5.5-39.7-16-57.2
			c-10.5-17.5-25-31.1-41.9-39.5c-1.9-0.9-3.1-2.7-3.1-4.5v-8.5c13.9-2.8,24.4-15.1,24.4-29.9c0-3.4-2.7-6.1-6.1-6.1
			s-6.1,2.7-6.1,6.1c0,8.4-5.7,15.5-13.5,17.6c-1.5-3.7-4.2-6.9-7.6-8.9l20.1-31.7c0.9-1.5,1.2-3.2,0.7-4.9s-1.6-3-3.1-3.8
			l-24.4-12.2c-1.7-0.9-3.7-0.9-5.5,0l-21.6,10.8l-21.6-10.8c-1.7-0.9-3.7-0.9-5.5,0l-24.4,12.2c-1.5,0.8-2.7,2.2-3.1,3.8
			c-0.5,1.7-0.2,3.4,0.7,4.9l20.1,31.7c-3.4,2.1-6.1,5.2-7.6,8.9c-7.8-2.1-13.5-9.2-13.5-17.6c0-3.4-2.7-6.1-6.1-6.1
			s-6.1,2.7-6.1,6.1c0,14.7,10.5,27,24.4,29.9v8.5c0,1.9-1.2,3.6-3.1,4.5c-16.9,8.3-31.4,22-41.9,39.5c-10.5,17.5-16,37.2-16,57.2
			v85.3c0,23.5,19.1,42.7,42.7,42.7h138.9c0.7,0,1.3-0.1,1.9-0.3c2.4,0.2,4.8,0.3,7.2,0.3c14.9,0,30.2-4.3,38.4-11.8
			c8.2,7.6,23.5,11.8,38.4,11.8c21.9,0,44.5-9.1,44.5-24.4V265.8C409,250.5,386.4,241.4,364.5,241.4z M160.6,120.7l15.6-7.8
			l21.6,10.8c1.7,0.9,3.7,0.9,5.5,0l21.6-10.8l15.6,7.8l-19,29.9h-42.1L160.6,120.7z M231.1,168.9v7.9h-60.9v-7.9
			c0-3.4,2.7-6.1,6.1-6.1H225c0,0,0,0,0,0c0,0,0,0,0,0C228.3,162.8,231.1,165.5,231.1,168.9z M139.7,399.8
			c-16.8,0-30.5-13.7-30.5-30.5V284c0-36.2,20.5-70.7,51.1-85.7c4.1-2,7.2-5.4,8.7-9.4h63.2c1.6,4,4.6,7.3,8.7,9.4
			C271,213.1,292,248.4,292,284v6.2c-1.4-0.1-2.8-0.1-4.3-0.1c-7.2,0-14.3,1-20.7,2.8c0.4-2.9,0.6-5.9,0.6-8.9c0-37-30.1-67-67-67
			s-67,30.1-67,67s30.1,67,67,67c15.9,0,30.8-5.4,42.7-15.3v51.8c0,4.7,2.1,8.8,5.7,12.2H139.7z M243.3,314.5v4
			c-10.5,13-25.9,20.4-42.7,20.4c-30.2,0-54.8-24.6-54.8-54.8s24.6-54.8,54.8-54.8s54.8,24.6,54.8,54.8c0,5-0.7,10-2,14.8
			C246.8,303.1,243.3,308.6,243.3,314.5z M320,387.6c0,4.8-13.9,12.2-32.3,12.2c-2.8,0-5.6-0.2-8.3-0.5c-14.8-1.8-24-8-24-11.7v-7.5
			c8.6,4.8,20.5,7.5,32.3,7.5s23.7-2.6,32.3-7.5V387.6z M320,363.3c0,4.8-13.9,12.2-32.3,12.2s-32.3-7.4-32.3-12.2v-7.5
			c8.6,4.8,20.5,7.5,32.3,7.5s23.7-2.6,32.3-7.5V363.3z M320,338.9c0,4.8-13.9,12.2-32.3,12.2s-32.3-7.4-32.3-12.2v-7.5
			c8.6,4.8,20.5,7.5,32.3,7.5s23.7-2.6,32.3-7.5V338.9z M287.7,326.7c-18.4,0-32.3-7.4-32.3-12.2c0-1.9,2.5-4.4,6.4-6.6
			c6.5-3.5,16.2-5.6,25.9-5.6c3.1,0,6.3,0.2,9.3,0.6c14.8,2,23,8.1,23,11.6C320,319.3,306.2,326.7,287.7,326.7z M396.8,387.6
			c0,4.8-13.9,12.2-32.3,12.2s-32.3-7.4-32.3-12.2v-7.5c8.6,4.8,20.5,7.5,32.3,7.5s23.7-2.6,32.3-7.5V387.6z M396.8,363.3
			c0,4.8-13.9,12.2-32.3,12.2s-32.3-7.4-32.3-12.2v-7.5c8.6,4.8,20.5,7.5,32.3,7.5s23.7-2.6,32.3-7.5V363.3z M396.8,338.9
			c0,4.8-13.9,12.2-32.3,12.2s-32.3-7.4-32.3-12.2v-7.5c8.6,4.8,20.5,7.5,32.3,7.5s23.7-2.6,32.3-7.5V338.9z M396.8,314.5
			c0,4.8-13.9,12.2-32.3,12.2s-32.3-7.4-32.3-12.2V307c8.6,4.8,20.5,7.5,32.3,7.5s23.7-2.6,32.3-7.5V314.5z M396.8,290.1
			c0,4.8-13.9,12.2-32.3,12.2s-32.3-7.4-32.3-12.2v-7.5c8.6,4.8,20.5,7.5,32.3,7.5s23.7-2.6,32.3-7.5V290.1z M364.5,277.9
			c-18.4,0-32.3-7.4-32.3-12.2c0-4.8,13.9-12.2,32.3-12.2s32.3,7.4,32.3,12.2C396.8,270.5,382.9,277.9,364.5,277.9z"/>
	</g>
</g>
</svg>
