<?xml version="1.0" encoding="utf-8"?>
<!-- Generator: Adobe Illustrator 22.1.0, SVG Export Plug-In . SVG Version: 6.00 Build 0)  -->
<svg version="1.1" id="Capa_1" xmlns="http://www.w3.org/2000/svg" xmlns:xlink="http://www.w3.org/1999/xlink" x="0px" y="0px"
	 viewBox="0 0 512 512" style="enable-background:new 0 0 512 512;" xml:space="preserve">
<style type="text/css">
	.st0{fill:none;stroke: #176fea;stroke-width:8;stroke-miterlimit:10;}
	.st1{fill:none;stroke: #0f91f1;stroke-width:5;stroke-miterlimit:10;}
	.st2{fill:none;stroke: #dedbf6;stroke-width:5;stroke-miterlimit:10;}
	.st3{fill: #137bec;}
</style>
<polygon class="st0" points="61.1,424.9 53.3,418.1 43.3,420.7 47.3,411.2 41.8,402.4 52.1,403.3 58.7,395.4 61,405.4 70.6,409.3 
	61.8,414.6 "/>
<polygon class="st1" points="356,447.7 344.4,448.2 338.3,458.1 334.2,447.2 322.9,444.4 332,437.2 331.2,425.6 340.9,432 
	351.6,427.6 348.5,438.8 "/>
<polygon class="st1" points="52.6,78.4 49.1,75.7 44.8,77.1 46.3,72.9 43.6,69.3 48.1,69.4 50.7,65.8 52,70.1 56.2,71.4 52.6,74 "/>
<polygon class="st1" points="302.4,60.3 300,55.5 294.8,54.8 298.6,51.1 297.7,45.8 302.4,48.3 307.1,45.8 306.2,51.1 310,54.8 
	304.8,55.5 "/>
<polygon class="st1" points="452.3,268 448.7,260.7 440.8,259.6 446.5,253.9 445.2,246 452.3,249.7 459.5,246 458.1,253.9 
	463.9,259.6 455.9,260.7 "/>
<circle class="st2" cx="148.4" cy="468.3" r="14.6"/>
<circle class="st2" cx="65.1" cy="217.1" r="6.1"/>
<circle class="st2" cx="124.8" cy="97.8" r="14.2"/>
<circle class="st2" cx="451.4" cy="122.6" r="10.6"/>
<circle class="st2" cx="431" cy="40.5" r="5.3"/>
<circle class="st2" cx="431" cy="389" r="11.5"/>
<g>
	<g>
		<g>
			<path class="st3" d="M257.9,210.4h4.9c8.1,0,14.6-6.5,14.6-14.6s-6.5-14.6-14.6-14.6h-19.5c-2.7,0-4.9-2.2-4.9-4.9
				c0-2.7,2.2-4.9,4.9-4.9h19.5c2.7,0,4.9,2.2,4.9,4.9h9.8c0-8.1-6.5-14.6-14.6-14.6h-4.9v-9.8h-9.8v9.8h-4.9
				c-8.1,0-14.6,6.5-14.6,14.6c0,8.1,6.5,14.6,14.6,14.6h19.5c2.7,0,4.9,2.2,4.9,4.9c0,2.7-2.2,4.9-4.9,4.9h-19.5
				c-2.7,0-4.9-2.2-4.9-4.9h-9.8c0,8.1,6.5,14.6,14.6,14.6h4.9v24.4h9.8V210.4z"/>
			<path class="st3" d="M307.5,207.3c11.7-30.1-3.1-64-33.2-75.8c-30.1-11.7-64,3.1-75.8,33.2c-11.7,30.1,3.1,64,33.2,75.8l3.5-9.1
				c-12.7-5-22.7-15-27.7-27.7c-9.8-25.1,2.6-53.3,27.7-63.1c25.1-9.8,53.3,2.6,63.1,27.7s-2.6,53.3-27.7,63.1l3.5,9.1
				C289.5,234.6,301.6,222.5,307.5,207.3z"/>
			<path class="st3" d="M282.3,283.5h-24.4V264h-9.8v19.5h-24.4c-13.5,0-24.4,10.9-24.4,24.4v87.8c0,13.5,10.9,24.4,24.4,24.4h58.5
				c13.5,0,24.4-10.9,24.4-24.4v-87.8C306.6,294.4,295.7,283.5,282.3,283.5z M296.9,307.9v24.4h-39v-20.3c5.7-2,9.8-7.4,9.8-13.8
				v-4.9h14.6C290.3,293.2,296.9,299.8,296.9,307.9z M253,303c-2.7,0-4.9-2.2-4.9-4.9v-4.9h9.8v4.9C257.9,300.8,255.7,303,253,303z
				 M223.8,293.2h14.6v4.9c0,6.4,4.1,11.8,9.8,13.8v20.3h-39v-24.4C209.1,299.8,215.7,293.2,223.8,293.2z M282.3,410.2h-58.5
				c-8.1,0-14.6-6.5-14.6-14.6V342h87.8v53.6C296.9,403.7,290.3,410.2,282.3,410.2z"/>
			<rect x="248.1" y="244.5" class="st3" width="9.8" height="9.8"/>
			<path class="st3" d="M409,156.7c0-10.8-8.7-19.5-19.5-19.5S370,146,370,156.7c0,9.1,6.2,16.7,14.6,18.9l-0.1,20.1h-29.3
				c-0.1,0-0.3,0-0.4,0c-5.2,0.1-9.4,4.4-9.3,9.7V225h-25.1c3.3-5.6,5.8-11.7,7.6-18.2c11.5-41.5-12.9-84.5-54.4-96
				s-84.5,12.9-96,54.4c-5.8,21-2.5,42.3,7.6,59.8h-25.1v-19.6c0-0.1,0-0.3,0-0.4c-0.1-5.2-4.4-9.4-9.7-9.2l-29.3,0v-20.1
				c8.4-2.2,14.6-9.8,14.6-18.9c0-10.8-8.7-19.5-19.5-19.5S97,146,97,156.7c0,9.1,6.2,16.7,14.6,18.9v20.1c0,0.1,0,0.3,0,0.4
				c0.1,5.3,4.5,9.5,9.8,9.4h29.2V225H136c-0.1,0-0.3,0-0.4,0c-5.3,0.1-9.5,4.5-9.3,9.8v29.9c-8.4,2.2-14.6,9.8-14.6,18.9
				c0,10.8,8.7,19.5,19.5,19.5s19.5-8.7,19.5-19.5c0-9.1-6.2-16.7-14.6-18.9v-29.9h56.1c9.9,12.4,23.7,21.9,40.1,26.5l2.6-9.4
				c-23.1-6.4-41.2-24.5-47.6-47.6c-10.1-36.3,11.2-73.9,47.6-84c36.3-10.1,73.9,11.2,84,47.6c10.1,36.3-11.2,73.9-47.6,84l2.6,9.4
				v0c16.1-4.4,30-13.8,40.1-26.5H370v29.9c-8.4,2.2-14.6,9.8-14.6,18.9c0,10.8,8.7,19.5,19.5,19.5s19.5-8.7,19.5-19.5
				c0-9.1-6.2-16.7-14.6-18.9v-29.9c0-0.1,0-0.3,0-0.4c-0.1-5.3-4.5-9.5-9.8-9.3h-14.6l0.1-19.5h29.1c0.1,0,0.3,0,0.4,0
				c5.3-0.1,9.5-4.5,9.4-9.8v-20.1C402.8,173.5,409,165.8,409,156.7z M106.8,156.7c0-5.4,4.4-9.8,9.8-9.8s9.8,4.4,9.8,9.8
				c0,5.4-4.4,9.8-9.8,9.8S106.8,162.1,106.8,156.7z M140.9,283.5c0,5.4-4.4,9.8-9.8,9.8c-5.4,0-9.8-4.4-9.8-9.8
				c0-5.4,4.4-9.8,9.8-9.8C136.5,273.7,140.9,278.1,140.9,283.5z M384.6,283.5c0,5.4-4.4,9.8-9.8,9.8s-9.8-4.4-9.8-9.8
				c0-5.4,4.4-9.8,9.8-9.8S384.6,278.1,384.6,283.5z M389.5,166.5c-5.4,0-9.8-4.4-9.8-9.8c0-5.4,4.4-9.8,9.8-9.8s9.8,4.4,9.8,9.8
				C399.3,162.1,394.9,166.5,389.5,166.5z"/>
		</g>
	</g>
</g>
</svg>
