<?xml version="1.0" encoding="utf-8"?>
<!-- Generator: Adobe Illustrator 22.1.0, SVG Export Plug-In . SVG Version: 6.00 Build 0)  -->
<svg version="1.1" id="Capa_1" xmlns="http://www.w3.org/2000/svg" xmlns:xlink="http://www.w3.org/1999/xlink" x="0px" y="0px"
	 viewBox="0 0 512 512" style="enable-background:new 0 0 512 512;" xml:space="preserve">
<style type="text/css">
	.st0{fill:none;stroke: #176fea;stroke-width:8;stroke-miterlimit:10;}
	.st1{fill:none;stroke: #0f91f1;stroke-width:5;stroke-miterlimit:10;}
	.st2{fill:none;stroke: #dedbf6;stroke-width:5;stroke-miterlimit:10;}
	.st3{fill: #137bec;}
</style>
<polygon class="st0" points="61.1,424.9 53.3,418.1 43.3,420.7 47.3,411.2 41.8,402.4 52.1,403.3 58.7,395.4 61,405.4 70.6,409.3 
	61.8,414.6 "/>
<polygon class="st1" points="356,447.7 344.4,448.2 338.3,458.1 334.2,447.2 322.9,444.4 332,437.2 331.2,425.6 340.9,432 
	351.6,427.6 348.5,438.8 "/>
<polygon class="st1" points="52.6,78.4 49.1,75.7 44.8,77.1 46.3,72.9 43.6,69.3 48.1,69.4 50.7,65.8 52,70.1 56.2,71.4 52.6,74 "/>
<polygon class="st1" points="302.4,60.3 300,55.5 294.8,54.8 298.6,51.1 297.7,45.8 302.4,48.3 307.1,45.8 306.2,51.1 310,54.8 
	304.8,55.5 "/>
<polygon class="st1" points="452.3,268 448.7,260.7 440.8,259.6 446.5,253.9 445.2,246 452.3,249.7 459.5,246 458.1,253.9 
	463.9,259.6 455.9,260.7 "/>
<circle class="st2" cx="148.4" cy="468.3" r="14.6"/>
<circle class="st2" cx="65.1" cy="217.1" r="6.1"/>
<circle class="st2" cx="124.8" cy="97.8" r="14.2"/>
<circle class="st2" cx="451.4" cy="122.6" r="10.6"/>
<circle class="st2" cx="431" cy="40.5" r="5.3"/>
<circle class="st2" cx="431" cy="389" r="11.5"/>
<g>
	<g>
		<path class="st3" d="M328.5,295.2h-54.8v-30c0-23.2-18.9-42.1-42.1-42.1H227v30.1c0,14.7-7.9,28.4-20.6,35.8l-16.2,9.4v-9.4h-65.7
			v10.4H99v9.2h25.5v82.8H99v9.2h25.5v10.4h65.7v-9.9l37.1,16.6h58.7c9.3,0,16.9-7.6,16.9-16.9v-10.4c8.6-2.1,15-9.8,15-19v-7.7
			c7.8-2,13.6-9.2,13.6-17.6v-12c9.4-1.4,16.7-9.6,16.7-19.4C348.1,304,339.3,295.2,328.5,295.2z M180.9,402h-47.2V298.3h47.2V402z
			 M328.5,325.3h-1.6h-4.6h-49.1v9.2h49.1v11.8c0,5-4,9-9,9H311h-2.4h-35.4v9.2h35.4v7.1c0,5.7-4.7,10.4-10.4,10.4H296h-2.4h-20.4
			v9.2h20.4v9.8c0,4.2-3.4,7.7-7.7,7.7h-56.7l-39.1-17.5v-82.1L211,297c15.6-9,25.2-25.8,25.2-43.8v-20.6
			c15.9,2.2,28.3,16,28.3,32.6v39.2h64c5.8,0,10.4,4.7,10.4,10.4C338.9,320.6,334.2,325.3,328.5,325.3z"/>
	</g>
</g>
<g>
	<g>
		<polygon class="st3" points="168.6,108.1 168.6,259 216.2,259 216.2,249.8 177.8,249.8 177.8,117.3 401.8,117.3 401.8,249.8 
			363.1,249.8 363.1,287.8 302.8,249.8 283.3,249.8 283.3,259 300.1,259 372.3,304.5 372.3,259 411,259 411,108.1 		"/>
	</g>
</g>
<g>
	<g>
		<path class="st3" d="M255.5,172l-23.8-3.5L221.1,147l-10.6,21.6l-23.8,3.5l17.2,16.8l-4.1,23.7l21.3-11.2l21.3,11.2l-4.1-23.7
			L255.5,172z M230.2,195.7l-9.1-4.8l-9.1,4.8l1.7-10.1l-7.3-7.1l10.1-1.5l4.5-9.2l4.5,9.2l10.1,1.5l-7.3,7.1L230.2,195.7z"/>
	</g>
</g>
<g>
	<g>
		<path class="st3" d="M323.9,152.4l-23.8-3.5l-10.6-21.6L278.9,149l-23.8,3.5l17.2,16.8l-4.1,23.7l21.3-11.2l21.3,11.2l-4.1-23.7
			L323.9,152.4z M298.6,176.1l-9.1-4.8l-9.1,4.8l1.7-10.1l-7.3-7.1l10.1-1.5l4.5-9.2l4.5,9.2l10.1,1.5l-7.3,7.1L298.6,176.1z"/>
	</g>
</g>
<g>
	<g>
		<path class="st3" d="M392.4,172l-23.8-3.5L357.9,147l-10.6,21.6l-23.8,3.5l17.2,16.8l-4.1,23.7l21.3-11.2l21.3,11.2l-4.1-23.7
			L392.4,172z M367,195.7l-9.1-4.8l-9.1,4.8l1.7-10.1l-7.3-7.1l10.1-1.5l4.5-9.2l4.5,9.2l10.1,1.5l-7.3,7.1L367,195.7z"/>
	</g>
</g>
<g>
	<g>
		<rect x="303.6" y="208.1" class="st3" width="9.2" height="9.2"/>
	</g>
</g>
<g>
	<g>
		<rect x="266.8" y="208.1" class="st3" width="9.2" height="9.2"/>
	</g>
</g>
<g>
	<g>
		<rect x="285.2" y="208.1" class="st3" width="9.2" height="9.2"/>
	</g>
</g>
<g>
	<g>
		<rect x="126" y="200.4" class="st3" width="9.2" height="9.2"/>
	</g>
</g>
<g>
	<g>
		<rect x="107.6" y="200.4" class="st3" width="9.2" height="9.2"/>
	</g>
</g>
<g>
	<g>
		<rect x="144.4" y="200.4" class="st3" width="9.2" height="9.2"/>
	</g>
</g>
<g>
	<g>
		<rect x="144.4" y="157.5" class="st3" width="9.2" height="9.2"/>
	</g>
</g>
<g>
	<g>
		<rect x="126" y="157.5" class="st3" width="9.2" height="9.2"/>
	</g>
</g>
<g>
	<g>
		<rect x="107.6" y="157.5" class="st3" width="9.2" height="9.2"/>
	</g>
</g>
<g>
	<g>
		<rect x="245.9" y="284.1" class="st3" width="9.2" height="9.2"/>
	</g>
</g>
<g>
	<g>
		<rect x="245.9" y="258.7" class="st3" width="9.2" height="16.2"/>
	</g>
</g>
<g>
	<g>
		<polygon class="st3" points="224,300.1 199.3,314.4 199.3,332.9 208.5,332.9 208.5,319.7 228.6,308.1 		"/>
	</g>
</g>
<g>
	<g>
		<rect x="199.3" y="342.2" class="st3" width="9.2" height="9.2"/>
	</g>
</g>
<g>
	<g>
		<rect x="141.9" y="307.5" class="st3" width="30.7" height="9.2"/>
	</g>
</g>
<g>
	<g>
		<polygon class="st3" points="187,126.5 187,146.4 196.3,146.4 196.3,135.7 216.2,135.7 216.2,126.5 		"/>
	</g>
</g>
<g>
	<g>
		<rect x="225.4" y="126.5" class="st3" width="9.2" height="9.2"/>
	</g>
</g>
<g>
	<g>
		<rect x="345" y="231.4" class="st3" width="9.2" height="9.2"/>
	</g>
</g>
<g>
	<g>
		<polygon class="st3" points="383.4,220.7 383.4,231.4 363.4,231.4 363.4,240.6 392.6,240.6 392.6,220.7 		"/>
	</g>
</g>
<g>
	<g>
		<rect x="357.3" y="126.5" class="st3" width="30.7" height="9.2"/>
	</g>
</g>
<g>
	<g>
		<rect x="338.9" y="126.5" class="st3" width="9.2" height="9.2"/>
	</g>
</g>
</svg>
