<?xml version="1.0" encoding="utf-8"?>
<!-- Generator: Adobe Illustrator 22.1.0, SVG Export Plug-In . SVG Version: 6.00 Build 0)  -->
<svg version="1.1" id="Capa_1" xmlns="http://www.w3.org/2000/svg" xmlns:xlink="http://www.w3.org/1999/xlink" x="0px" y="0px"
	 viewBox="0 0 512 512" style="enable-background:new 0 0 512 512;" xml:space="preserve">
<style type="text/css">
	.st0{fill:none;stroke: #176fea;stroke-width:8;stroke-miterlimit:10;}
	.st1{fill:none;stroke: #0f91f1;stroke-width:5;stroke-miterlimit:10;}
	.st2{fill:none;stroke: #dedbf6;stroke-width:5;stroke-miterlimit:10;}
	.st3{fill: #137bec;}
</style>
<polygon class="st0" points="61.1,424.9 53.3,418.1 43.3,420.7 47.3,411.2 41.8,402.4 52.1,403.3 58.7,395.4 61,405.4 70.6,409.3 
	61.8,414.6 "/>
<polygon class="st1" points="356,447.7 344.4,448.2 338.3,458.1 334.2,447.2 322.9,444.4 332,437.2 331.2,425.6 340.9,432 
	351.6,427.6 348.5,438.8 "/>
<polygon class="st1" points="52.6,78.4 49.1,75.7 44.8,77.1 46.3,72.9 43.6,69.3 48.1,69.4 50.7,65.8 52,70.1 56.2,71.4 52.6,74 "/>
<polygon class="st1" points="302.4,60.3 300,55.5 294.8,54.8 298.6,51.1 297.7,45.8 302.4,48.3 307.1,45.8 306.2,51.1 310,54.8 
	304.8,55.5 "/>
<polygon class="st1" points="452.3,268 448.7,260.7 440.8,259.6 446.5,253.9 445.2,246 452.3,249.7 459.5,246 458.1,253.9 
	463.9,259.6 455.9,260.7 "/>
<circle class="st2" cx="148.4" cy="468.3" r="14.6"/>
<circle class="st2" cx="65.1" cy="217.1" r="6.1"/>
<circle class="st2" cx="124.8" cy="97.8" r="14.2"/>
<circle class="st2" cx="451.4" cy="122.6" r="10.6"/>
<circle class="st2" cx="431" cy="40.5" r="5.3"/>
<circle class="st2" cx="431" cy="389" r="11.5"/>
<g>
	<g>
		<path class="st3" d="M150.3,290.5c-27.2,0-49.3,22.1-49.3,49.3s22.1,49.3,49.3,49.3s49.3-22.1,49.3-49.3S177.6,290.5,150.3,290.5z
			 M150.3,378.5c-21.4,0-38.8-17.4-38.8-38.8S129,301,150.3,301s38.8,17.4,38.8,38.8C189.1,361.1,171.7,378.5,150.3,378.5z"/>
	</g>
</g>
<g>
	<g>
		<path class="st3" d="M256,311.6c-27.2,0-49.3,22.1-49.3,49.3s22.1,49.3,49.3,49.3c27.2,0,49.3-22.1,49.3-49.3
			C305.3,333.7,283.2,311.6,256,311.6z M256,399.7c-21.4,0-38.8-17.4-38.8-38.8c0-21.4,17.4-38.8,38.8-38.8
			c21.4,0,38.8,17.4,38.8,38.8C294.7,382.3,277.4,399.7,256,399.7z"/>
	</g>
</g>
<g>
	<g>
		<path class="st3" d="M256,103.8c-46.7,0-84.5,37.9-84.5,84.5c0,46.7,37.8,84.5,84.5,84.5s84.5-37.8,84.5-84.5
			C340.5,141.6,302.7,103.8,256,103.8z M256,262.3c-40.8,0-74-33.2-74-74s33.2-74,74-74c40.8,0,74,33.2,74,74
			C330,229.1,296.8,262.3,256,262.3z"/>
	</g>
</g>
<g>
	<g>
		<path class="st3" d="M361.7,290.5c-27.2,0-49.3,22.1-49.3,49.3c0,27.2,22.1,49.3,49.3,49.3S411,367,411,339.8
			S388.9,290.5,361.7,290.5z M361.7,378.5c-21.4,0-38.8-17.4-38.8-38.8s17.4-38.8,38.8-38.8c21.4,0,38.8,17.4,38.8,38.8
			C400.4,361.1,383,378.5,361.7,378.5z"/>
	</g>
</g>
<g>
	<g>
		<path class="st3" d="M274.7,183.3c6.1-5.3,9.9-13,9.9-21.7c0-15.8-12.8-28.7-28.7-28.7c-15.8,0-28.7,12.8-28.7,28.7
			c0,8.7,3.9,16.4,9.9,21.7c-16.8,6.8-28.6,22.5-28.6,42c0,1.4,0.6,2.8,1.5,3.7c1,1,2.3,1.5,3.7,1.5h84.2c1.4,0,2.8-0.6,3.7-1.5
			c1-1,1.5-2.3,1.5-3.7C303.4,205.8,291.6,190,274.7,183.3z M243.2,148.8c3.3-3.3,7.8-5.3,12.8-5.3c5,0,9.5,2,12.8,5.3
			c3.3,3.3,5.3,7.8,5.3,12.8c0,5-2,9.5-5.3,12.8c-3.3,3.3-7.8,5.3-12.8,5.3c-5,0-9.5-2-12.8-5.3c-3.3-3.3-5.3-7.8-5.3-12.8
			C237.9,156.6,239.9,152.1,243.2,148.8z M219.6,220c1.2-7.5,4.9-13.5,10.3-19c6.7-6.7,15.8-10.8,26-10.8c10.2,0,19.3,4.1,26,10.8
			c5.5,5.5,9.1,11.4,10.3,19H219.6L219.6,220z"/>
	</g>
</g>
<g>
	<g>
		<circle class="st3" cx="256.2" cy="301.1" r="5.3"/>
	</g>
</g>
<g>
	<g>
		<circle class="st3" cx="256.2" cy="283.5" r="5.3"/>
	</g>
</g>
<g>
	<g>
		<circle class="st3" cx="329.9" cy="292.3" r="5.3"/>
	</g>
</g>
<g>
	<g>
		<circle class="st3" cx="318.6" cy="278.8" r="5.3"/>
	</g>
</g>
<g>
	<g>
		<circle class="st3" cx="307.2" cy="265.3" r="5.3"/>
	</g>
</g>
<g>
	<g>
		
			<ellipse transform="matrix(7.088898e-02 -0.9975 0.9975 7.088898e-02 -122.4354 454.0069)" class="st3" cx="182.5" cy="292.7" rx="5.3" ry="5.3"/>
	</g>
</g>
<g>
	<g>
		<circle class="st3" cx="193.8" cy="279.2" r="5.3"/>
	</g>
</g>
<g>
	<g>
		<circle class="st3" cx="205.1" cy="265.7" r="5.3"/>
	</g>
</g>
<g>
	<g>
		<path class="st3" d="M386.8,351.1c-1.7-5-5.1-9-9.5-11.9c-0.6-0.4-1.2-0.7-1.8-1c2-2.8,3.2-6.1,3.2-9.8c0-9.3-7.6-16.9-16.9-16.9
			c-9.3,0-16.9,7.6-16.9,16.9c0,3.7,1.2,7,3.2,9.8c-0.6,0.3-1.3,0.6-1.8,1c-4.4,2.8-7.9,6.9-9.6,11.9c-0.9,2.8,0.6,5.8,3.3,6.7
			c2.8,0.9,5.8-0.6,6.7-3.3c0.8-2.4,2.6-4.6,5.2-6.4c2.6-1.7,6.1-2.8,9.9-2.8c3.8,0,7.3,1.1,9.9,2.8c2.7,1.7,4.4,4,5.2,6.4
			c0.9,2.8,3.9,4.3,6.7,3.3C386.2,356.8,387.7,353.9,386.8,351.1z M361.7,334.8c-3.5,0-6.3-2.9-6.4-6.4c0-3.5,2.8-6.3,6.4-6.4
			c3.5,0,6.3,2.8,6.4,6.4C368,331.9,365.2,334.8,361.7,334.8z"/>
	</g>
</g>
<g>
	<g>
		<path class="st3" d="M281.2,372.2c-1.7-5-5.1-9-9.5-11.9c-0.6-0.4-1.2-0.7-1.9-1c2-2.8,3.2-6.1,3.2-9.8c0-9.3-7.6-16.9-16.9-16.9
			c-9.3,0-16.9,7.6-16.9,16.9c0,3.7,1.2,7,3.2,9.8c-0.6,0.3-1.3,0.6-1.8,1c-4.4,2.8-7.9,6.9-9.6,11.9c-0.9,2.8,0.6,5.8,3.3,6.7
			s5.8-0.6,6.7-3.3c0.8-2.4,2.6-4.6,5.2-6.4c2.6-1.7,6.1-2.8,9.9-2.8c3.8,0,7.3,1.1,9.9,2.8c2.7,1.7,4.4,4,5.2,6.4
			c0.9,2.8,3.9,4.3,6.7,3.3C280.7,378,282.2,375,281.2,372.2z M256.1,355.9c-3.5,0-6.3-2.9-6.4-6.4c0-3.5,2.8-6.3,6.4-6.4
			c3.5,0,6.3,2.8,6.4,6.4C262.4,353.1,259.6,355.9,256.1,355.9z"/>
	</g>
</g>
<g>
	<g>
		<path class="st3" d="M175.5,351.1c-1.7-5-5.1-9-9.5-11.9c-0.6-0.4-1.2-0.7-1.9-1c2-2.8,3.2-6.1,3.2-9.8c0-9.3-7.6-16.9-16.9-16.9
			c-9.3,0-16.9,7.6-16.9,16.9c0,3.7,1.2,7,3.2,9.8c-0.6,0.3-1.3,0.6-1.8,1c-4.4,2.8-7.9,6.9-9.6,11.9c-0.9,2.8,0.6,5.8,3.3,6.7
			c2.8,0.9,5.8-0.6,6.7-3.3c0.8-2.4,2.6-4.6,5.2-6.4c2.6-1.7,6.1-2.8,9.9-2.8c3.8,0,7.3,1.1,9.9,2.8c2.7,1.7,4.4,4,5.2,6.4
			c0.9,2.8,3.9,4.3,6.7,3.3C175,356.8,176.5,353.9,175.5,351.1z M150.4,334.8c-3.5,0-6.3-2.9-6.4-6.4c0-3.5,2.8-6.3,6.4-6.4
			c3.5,0,6.3,2.8,6.4,6.4C156.7,331.9,153.9,334.8,150.4,334.8z"/>
	</g>
</g>
</svg>
