<?xml version="1.0" encoding="utf-8"?>
<!-- Generator: Adobe Illustrator 22.1.0, SVG Export Plug-In . SVG Version: 6.00 Build 0)  -->
<svg version="1.1" id="Capa_1" xmlns="http://www.w3.org/2000/svg" xmlns:xlink="http://www.w3.org/1999/xlink" x="0px" y="0px"
	 viewBox="0 0 512 512" style="enable-background:new 0 0 512 512;" xml:space="preserve">
<style type="text/css">
	.st0{fill:none;stroke: #176fea;stroke-width:8;stroke-miterlimit:10;}
	.st1{fill:none;stroke: #0f91f1;stroke-width:5;stroke-miterlimit:10;}
	.st2{fill:none;stroke: #dedbf6;stroke-width:5;stroke-miterlimit:10;}
	.st3{fill: #137bec;}
</style>
<polygon class="st0" points="61.1,424.9 53.3,418.1 43.3,420.7 47.3,411.2 41.8,402.4 52.1,403.3 58.7,395.4 61,405.4 70.6,409.3 
	61.8,414.6 "/>
<polygon class="st1" points="356,447.7 344.4,448.2 338.3,458.1 334.2,447.2 322.9,444.4 332,437.2 331.2,425.6 340.9,432 
	351.6,427.6 348.5,438.8 "/>
<polygon class="st1" points="52.6,78.4 49.1,75.7 44.8,77.1 46.3,72.9 43.6,69.3 48.1,69.4 50.7,65.8 52,70.1 56.2,71.4 52.6,74 "/>
<polygon class="st1" points="302.4,60.3 300,55.5 294.8,54.8 298.6,51.1 297.7,45.8 302.4,48.3 307.1,45.8 306.2,51.1 310,54.8 
	304.8,55.5 "/>
<polygon class="st1" points="452.3,268 448.7,260.7 440.8,259.6 446.5,253.9 445.2,246 452.3,249.7 459.5,246 458.1,253.9 
	463.9,259.6 455.9,260.7 "/>
<circle class="st2" cx="148.4" cy="468.3" r="14.6"/>
<circle class="st2" cx="65.1" cy="217.1" r="6.1"/>
<circle class="st2" cx="124.8" cy="97.8" r="14.2"/>
<circle class="st2" cx="451.4" cy="122.6" r="10.6"/>
<circle class="st2" cx="431" cy="40.5" r="5.3"/>
<circle class="st2" cx="431" cy="389" r="11.5"/>
<g>
	<g>
		<path class="st3" d="M398.6,397.9h-14.1v-205c0-9.5-7.8-17.3-17.3-17.3h-31.6c-9.5,0-17.3,7.8-17.3,17.3v205h-35.8V285.8
			c0-9.5-7.8-17.3-17.3-17.3h-31.6c-9.5,0-17.3,7.8-17.3,17.3v112.1h-35.8v-58.1c0-9.5-7.8-17.3-17.3-17.3h-31.6
			c-9.5,0-17.3,7.8-17.3,17.3v58.1H99.4c-3.6,0-6.4,2.9-6.4,6.4c0,3.6,2.9,6.4,6.4,6.4h299.1c3.6,0,6.4-2.9,6.4-6.4
			C405,400.8,402.1,397.9,398.6,397.9z M167.6,397.9h-40.4v-58.1c0-2.4,2-4.4,4.4-4.4h31.6c2.4,0,4.4,2,4.4,4.4V397.9L167.6,397.9z
			 M269.6,397.9h-40.4V285.8c0-2.4,2-4.4,4.4-4.4h31.6c2.4,0,4.4,2,4.4,4.4V397.9z M371.6,397.9h-40.4v-205c0-2.4,2-4.4,4.4-4.4
			h31.6c2.4,0,4.4,2,4.4,4.4L371.6,397.9L371.6,397.9z"/>
	</g>
</g>
<g>
	<g>
		<path class="st3" d="M384.4,88c0.1-1.8-0.5-3.5-1.9-4.9c-1.3-1.3-3.1-2-4.9-1.9c-0.1,0-0.2,0-0.3,0h-38.9c-3.6,0-6.4,2.9-6.4,6.4
			s2.9,6.4,6.4,6.4h24l-63.6,63.6l-24-24c-1.2-1.2-2.8-1.9-4.6-1.9c-1.7,0-3.3,0.7-4.6,1.9L150.1,249.4c-2.5,2.5-2.5,6.6,0,9.1
			c1.3,1.3,2.9,1.9,4.6,1.9s3.3-0.6,4.6-1.9l111.1-111.1l24,24c2.5,2.5,6.6,2.5,9.1,0l68.2-68.2V125c0,3.6,2.9,6.4,6.4,6.4
			s6.4-2.9,6.4-6.4V88.3C384.4,88.2,384.4,88.1,384.4,88z"/>
	</g>
</g>
<g>
	<g>
		<circle class="st3" cx="132.9" cy="276.4" r="6.4"/>
	</g>
</g>
</svg>
