<?xml version="1.0" encoding="utf-8"?>
<!-- Generator: Adobe Illustrator 22.1.0, SVG Export Plug-In . SVG Version: 6.00 Build 0)  -->
<svg version="1.1" id="Capa_1" xmlns="http://www.w3.org/2000/svg" xmlns:xlink="http://www.w3.org/1999/xlink" x="0px" y="0px"
	 viewBox="0 0 512 512" style="enable-background:new 0 0 512 512;" xml:space="preserve">
<style type="text/css">
	.st0{fill:none;stroke: #176fea;stroke-width:8;stroke-miterlimit:10;}
	.st1{fill:none;stroke: #0f91f1;stroke-width:5;stroke-miterlimit:10;}
	.st2{fill:none;stroke: #dedbf6;stroke-width:5;stroke-miterlimit:10;}
	.st3{fill: #137bec;}
</style>
<polygon class="st0" points="61.1,424.9 53.3,418.1 43.3,420.7 47.3,411.2 41.8,402.4 52.1,403.3 58.7,395.4 61,405.4 70.6,409.3 
	61.8,414.6 "/>
<polygon class="st1" points="356,447.7 344.4,448.2 338.3,458.1 334.2,447.2 322.9,444.4 332,437.2 331.2,425.6 340.9,432 
	351.6,427.6 348.5,438.8 "/>
<polygon class="st1" points="52.6,78.4 49.1,75.7 44.8,77.1 46.3,72.9 43.6,69.3 48.1,69.4 50.7,65.8 52,70.1 56.2,71.4 52.6,74 "/>
<polygon class="st1" points="302.4,60.3 300,55.5 294.8,54.8 298.6,51.1 297.7,45.8 302.4,48.3 307.1,45.8 306.2,51.1 310,54.8 
	304.8,55.5 "/>
<polygon class="st1" points="452.3,268 448.7,260.7 440.8,259.6 446.5,253.9 445.2,246 452.3,249.7 459.5,246 458.1,253.9 
	463.9,259.6 455.9,260.7 "/>
<circle class="st2" cx="148.4" cy="468.3" r="14.6"/>
<circle class="st2" cx="65.1" cy="217.1" r="6.1"/>
<circle class="st2" cx="124.8" cy="97.8" r="14.2"/>
<circle class="st2" cx="451.4" cy="122.6" r="10.6"/>
<circle class="st2" cx="431" cy="40.5" r="5.3"/>
<circle class="st2" cx="431" cy="389" r="11.5"/>
<g>
	<g>
		<g>
			<path class="st3" d="M381,216.7c0-69.4-55.9-125.3-125-125.3s-125,55.9-125,125c0,0,0,0,0,0.3c-27.8,1.6-50,24.7-50,52.8v6.3
				c0,29.4,23.8,53.1,53.1,53.1h2.8l22.2,35.3c15.6,25,42.2,39.7,71.6,39.7h4.4c2.8,10.6,12.5,18.8,24.1,18.8c13.8,0,25-11.3,25-25
				s-11.3-25-25-25c-11.6,0-21.3,8.1-24.1,18.8h-4.4c-25,0-47.8-12.8-60.9-34.1l-18.1-28.4h4.4c6.9,0,12.5-5.6,12.5-12.5v-87.5
				c0-6.9-5.6-12.5-12.5-12.5h-12.5c0-62.2,50.3-112.5,112.5-112.5s112.5,50.3,112.5,112.5H356c-6.9,0-12.5,5.6-12.5,12.5v87.5
				c0,6.9,5.6,12.5,12.5,12.5h21.9c29.4,0,53.1-23.8,53.1-53.1v-6.3C431,241.4,408.8,218.3,381,216.7z M259.1,385.1
				c6.9,0,12.5,5.6,12.5,12.5s-5.6,12.5-12.5,12.5s-12.5-5.6-12.5-12.5S252.3,385.1,259.1,385.1z M156,228.9v87.5h-21.9
				c-22.5,0-40.6-18.1-40.6-40.6v-6.3c0-22.5,18.1-40.6,40.6-40.6H156z M418.5,275.8c0,22.5-18.1,40.6-40.6,40.6H356v-87.5h21.9
				c22.5,0,40.6,18.1,40.6,40.6V275.8z"/>
			<path class="st3" d="M307.9,138.6c-0.6-0.3-1.6-0.9-2.5-1.6c-0.9-0.6-1.9-1.3-2.5-1.6c-2.8-1.9-6.9-0.9-8.4,2.2s-0.9,6.6,2.2,8.4
				c0.6,0.3,1.6,0.9,2.5,1.6c0.9,0.6,1.9,1.3,2.8,1.6c0.9,0.6,2.2,0.9,3.1,0.9c2.2,0,4.1-0.9,5.3-3.1
				C311.9,144.2,311,140.4,307.9,138.6z"/>
			<path class="st3" d="M256,122.6c-26.6,0-51.6,11.6-68.8,31.6c-2.2,2.5-1.9,6.6,0.6,8.8c1.3,0.9,2.5,1.6,4.1,1.6
				c1.9,0,3.4-0.6,4.7-2.2c15-17.2,36.6-27.2,59.4-27.2c5.6,0,11.3,0.6,16.9,1.9c3.4,0.6,6.6-1.6,7.5-4.7c0.9-3.1-1.6-6.6-4.7-7.5
				C269.1,123.3,262.6,122.6,256,122.6z"/>
		</g>
	</g>
</g>
</svg>
