<?xml version="1.0" encoding="utf-8"?>
<!-- Generator: Adobe Illustrator 22.1.0, SVG Export Plug-In . SVG Version: 6.00 Build 0)  -->
<svg version="1.1" id="Capa_1" xmlns="http://www.w3.org/2000/svg" xmlns:xlink="http://www.w3.org/1999/xlink" x="0px" y="0px"
	 viewBox="0 0 512 512" style="enable-background:new 0 0 512 512;" xml:space="preserve">
<style type="text/css">
	.st0{fill:none;stroke: #176fea;stroke-width:8;stroke-miterlimit:10;}
	.st1{fill:none;stroke: #0f91f1;stroke-width:5;stroke-miterlimit:10;}
	.st2{fill:none;stroke: #dedbf6;stroke-width:5;stroke-miterlimit:10;}
	.st3{fill: #137bec;}
</style>
<polygon class="st0" points="61.1,424.9 53.3,418.1 43.3,420.7 47.3,411.2 41.8,402.4 52.1,403.3 58.7,395.4 61,405.4 70.6,409.3 
	61.8,414.6 "/>
<polygon class="st1" points="356,447.7 344.4,448.2 338.3,458.1 334.2,447.2 322.9,444.4 332,437.2 331.2,425.6 340.9,432 
	351.6,427.6 348.5,438.8 "/>
<polygon class="st1" points="52.6,78.4 49.1,75.7 44.8,77.1 46.3,72.9 43.6,69.3 48.1,69.4 50.7,65.8 52,70.1 56.2,71.4 52.6,74 "/>
<polygon class="st1" points="302.4,60.3 300,55.5 294.8,54.8 298.6,51.1 297.7,45.8 302.4,48.3 307.1,45.8 306.2,51.1 310,54.8 
	304.8,55.5 "/>
<polygon class="st1" points="452.3,268 448.7,260.7 440.8,259.6 446.5,253.9 445.2,246 452.3,249.7 459.5,246 458.1,253.9 
	463.9,259.6 455.9,260.7 "/>
<circle class="st2" cx="148.4" cy="468.3" r="14.6"/>
<circle class="st2" cx="65.1" cy="217.1" r="6.1"/>
<circle class="st2" cx="124.8" cy="97.8" r="14.2"/>
<circle class="st2" cx="451.4" cy="122.6" r="10.6"/>
<circle class="st2" cx="431" cy="40.5" r="5.3"/>
<circle class="st2" cx="431" cy="389" r="11.5"/>
<g>
	<g>
		<path class="st3" d="M291.2,284.8c2.5,0,4.6-2.1,4.6-4.6v-10.4c0-7.9-6.4-14.3-14.3-14.3h-48.8c-7.9,0-14.3,6.4-14.3,14.3v45.8
			c0,2.5,2.1,4.6,4.6,4.6h68.4c2.5,0,4.6-2.1,4.6-4.6v-14c0-2.5-2.1-4.6-4.6-4.6c-2.5,0-4.6,2.1-4.6,4.6v9.5h-25v-29.9l12.4-16.5
			h7.5c2.9,0,5.2,2.3,5.2,5.2v10.4C286.6,282.7,288.7,284.8,291.2,284.8z M252.4,311h-25v-41.2c0-2.9,2.3-5.2,5.2-5.2h7.5l12.4,16.5
			L252.4,311L252.4,311z M257,272l-5.5-7.3h11L257,272z"/>
	</g>
</g>
<g>
	<g>
		<path class="st3" d="M257,192c-17,0-26.6,7.6-31.7,13.9c-5.5,6.9-7,13.9-7,14.2c-0.6,2.8,1.6,5.5,4.5,5.5h5.6
			c2.2,13.8,14.2,24.4,28.6,24.4c16,0,29-13,29-29S273,192,257,192z M257,240.8c-9.4,0-17.2-6.5-19.3-15.3h38.6
			C274.2,234.3,266.4,240.8,257,240.8z M229.4,216.4c3.2-6.2,10.7-15.3,27.6-15.3c9.4,0,17.2,6.5,19.3,15.3H229.4z"/>
	</g>
</g>
<g>
	<g>
		<path class="st3" d="M335.2,120.5c-13.3,0-24.1,10.8-24.1,24.1c0,13.3,10.8,24.1,24.1,24.1s24.1-10.8,24.1-24.1
			C359.3,131.4,348.5,120.5,335.2,120.5z M335.2,159.6c-8.2,0-15-6.7-15-15c0-8.2,6.7-15,15-15s15,6.7,15,15
			C350.1,152.9,343.4,159.6,335.2,159.6z"/>
	</g>
</g>
<g>
	<g>
		<path class="st3" d="M354.7,174.3h-39.1c-5.2,0-9.5,4.2-9.5,9.5v44c0,2.5,2.1,4.6,4.6,4.6h48.8c2.5,0,4.6-2.1,4.6-4.6v-44
			C364.2,178.5,359.9,174.3,354.7,174.3z M355,223.1h-39.7v-39.4c0-0.2,0.1-0.3,0.3-0.3h39.1c0.2,0,0.3,0.1,0.3,0.3V223.1L355,223.1
			z"/>
	</g>
</g>
<g>
	<g>
		<path class="st3" d="M174,281.7c-13.3,0-24.1,10.8-24.1,24.1c0,13.3,10.8,24.1,24.1,24.1c13.3,0,24.1-10.8,24.1-24.1
			C198.1,292.5,187.3,281.7,174,281.7z M174,320.8c-8.2,0-15-6.7-15-15s6.7-15,15-15s15,6.7,15,15S182.2,320.8,174,320.8z"/>
	</g>
</g>
<g>
	<g>
		<path class="st3" d="M193.5,335.5h-39.1c-5.2,0-9.5,4.2-9.5,9.5v44c0,2.5,2.1,4.6,4.6,4.6h48.8c2.5,0,4.6-2.1,4.6-4.6v-44
			C203,339.7,198.7,335.5,193.5,335.5z M193.8,384.3h-39.7v-39.4c0-0.2,0.1-0.3,0.3-0.3h39.1c0.2,0,0.3,0.1,0.3,0.3V384.3z"/>
	</g>
</g>
<g>
	<g>
		<path class="st3" d="M413,178.8c0-42.9-34.9-77.8-77.8-77.8c-36.3,0-66.9,25-75.5,58.7c-0.9,0-1.8,0-2.7,0
			c-53.7,0-97.4,43.7-97.4,97.4c0,0.9,0,1.8,0,2.7c-33.7,8.6-58.7,39.1-58.7,75.5c0,42.9,34.9,77.8,77.8,77.8
			c36.3,0,66.9-25,75.5-58.7c0.9,0,1.8,0,2.7,0c53.7,0,97.4-43.7,97.4-97.4c0-0.9,0-1.8,0-2.7C388,245.7,413,215.2,413,178.8z
			 M335.2,247.5c-2.5,0-4.6,2.1-4.6,4.6s2.1,4.6,4.6,4.6c3.4,0,6.8-0.2,10.1-0.6c0,0.3,0,0.6,0,1c0,48.6-39.6,88.2-88.2,88.2
			c-0.3,0-0.6,0-1,0c0.4-3.3,0.6-6.7,0.6-10.1c0-1.5,0-3-0.1-4.5c-0.1-2.5-2.3-4.5-4.8-4.3c-2.5,0.1-4.5,2.3-4.3,4.8
			c0.1,1.3,0.1,2.7,0.1,4c0,37.9-30.8,68.7-68.7,68.7s-68.7-30.8-68.7-68.7s30.8-68.7,68.7-68.7c2.5,0,4.6-2.1,4.6-4.6
			s-2.1-4.6-4.6-4.6c-3.4,0-6.8,0.2-10.1,0.6c0-0.3,0-0.6,0-1c0-48.6,39.6-88.2,88.2-88.2c0.3,0,0.6,0,1,0
			c-0.4,3.3-0.6,6.6-0.6,10.1c0,2.5,2.1,4.6,4.6,4.6c2.5,0,4.6-2.1,4.6-4.6c0-37.9,30.8-68.7,68.7-68.7s68.7,30.8,68.7,68.7
			S373,247.5,335.2,247.5z"/>
	</g>
</g>
<g>
	<g>
		<path class="st3" d="M403.5,325.7c-2.5,0-4.6,2.1-4.6,4.6c0,40.6-33,73.6-73.6,73.6c-2.5,0-4.6,2.1-4.6,4.6c0,2.5,2.1,4.6,4.6,4.6
			c45.6,0,82.7-37.1,82.7-82.7C408.1,327.7,406.1,325.7,403.5,325.7z"/>
	</g>
</g>
<g>
	<g>
		<path class="st3" d="M344.9,325.7c-2.5,0-4.6,2.1-4.6,4.6c0,8.2-6.7,15-15,15c-2.5,0-4.6,2.1-4.6,4.6c0,2.5,2.1,4.6,4.6,4.6
			c13.3,0,24.1-10.8,24.1-24.1C349.5,327.7,347.5,325.7,344.9,325.7z"/>
	</g>
</g>
<g>
	<g>
		<path class="st3" d="M374.2,325.7c-2.5,0-4.6,2.1-4.6,4.6c0,24.4-19.9,44.3-44.3,44.3c-2.5,0-4.6,2.1-4.6,4.6
			c0,2.5,2.1,4.6,4.6,4.6c29.5,0,53.4-24,53.4-53.4C378.8,327.7,376.8,325.7,374.2,325.7z"/>
	</g>
</g>
<g>
	<g>
		<path class="st3" d="M188.6,101c-45.6,0-82.7,37.1-82.7,82.7c0,2.5,2.1,4.6,4.6,4.6s4.6-2.1,4.6-4.6c0-40.6,33-73.6,73.6-73.6
			c2.5,0,4.6-2.1,4.6-4.6C193.2,103.1,191.1,101,188.6,101z"/>
	</g>
</g>
<g>
	<g>
		<path class="st3" d="M188.6,159.6c-13.3,0-24.1,10.8-24.1,24.1c0,2.5,2.1,4.6,4.6,4.6c2.5,0,4.6-2.1,4.6-4.6c0-8.2,6.7-15,15-15
			c2.5,0,4.6-2.1,4.6-4.6C193.2,161.7,191.1,159.6,188.6,159.6z"/>
	</g>
</g>
<g>
	<g>
		<path class="st3" d="M188.6,130.3c-29.5,0-53.4,24-53.4,53.4c0,2.5,2.1,4.6,4.6,4.6c2.5,0,4.6-2.1,4.6-4.6
			c0-24.4,19.9-44.3,44.3-44.3c2.5,0,4.6-2.1,4.6-4.6C193.2,132.4,191.1,130.3,188.6,130.3z"/>
	</g>
</g>
</svg>
